<svg width="110" height="44" viewBox="0 0 110 44" fill="none" xmlns="http://www.w3.org/2000/svg">
<path d="M14.54 6.11C14.54 6.85 14.37 7.46 14.03 7.94C13.69 8.42 13.225 8.775 12.635 9.005C12.045 9.235 11.36 9.35 10.58 9.35H8.03C7.94 9.35 7.895 9.395 7.895 9.485V13.775C7.895 13.925 7.82 14 7.67 14H6.65C6.58 14 6.53 13.985 6.5 13.955C6.47 13.925 6.455 13.875 6.455 13.805V3.08C6.455 2.94 6.515 2.87 6.635 2.87H10.415C11.205 2.87 11.91 2.98 12.53 3.2C13.15 3.42 13.64 3.77 14 4.25C14.36 4.73 14.54 5.35 14.54 6.11ZM13.07 6.065C13.07 5.555 12.955 5.145 12.725 4.835C12.505 4.525 12.19 4.305 11.78 4.175C11.38 4.035 10.9 3.965 10.34 3.965H8.09C7.96 3.965 7.895 4.025 7.895 4.145V8.045C7.895 8.185 7.94 8.255 8.03 8.255H10.445C11.235 8.255 11.87 8.08 12.35 7.73C12.83 7.38 13.07 6.825 13.07 6.065ZM21.0864 14.15C20.1064 14.15 19.2564 13.93 18.5364 13.49C17.8264 13.05 17.2814 12.41 16.9014 11.57C16.5214 10.72 16.3314 9.69 16.3314 8.48C16.3314 7.26 16.5264 6.22 16.9164 5.36C17.3064 4.5 17.8564 3.845 18.5664 3.395C19.2764 2.945 20.1214 2.72 21.1014 2.72C22.0814 2.72 22.9214 2.945 23.6214 3.395C24.3314 3.845 24.8764 4.495 25.2564 5.345C25.6464 6.195 25.8414 7.235 25.8414 8.465C25.8414 9.675 25.6514 10.705 25.2714 11.555C24.8914 12.395 24.3414 13.04 23.6214 13.49C22.9114 13.93 22.0664 14.15 21.0864 14.15ZM21.1164 13.055C22.1964 13.055 23.0014 12.685 23.5314 11.945C24.0714 11.195 24.3414 10.04 24.3414 8.48C24.3414 6.89 24.0664 5.715 23.5164 4.955C22.9764 4.195 22.1714 3.815 21.1014 3.815C20.0214 3.815 19.2064 4.2 18.6564 4.97C18.1064 5.73 17.8314 6.9 17.8314 8.48C17.8314 10.03 18.1064 11.18 18.6564 11.93C19.2064 12.68 20.0264 13.055 21.1164 13.055ZM40.942 2.87C41.032 2.87 41.092 2.895 41.122 2.945C41.162 2.995 41.172 3.06 41.152 3.14L38.062 13.775C38.012 13.925 37.902 14 37.732 14H36.817C36.627 14 36.512 13.93 36.472 13.79L34.072 5.285C34.062 5.235 34.047 5.21 34.027 5.21C34.007 5.21 33.987 5.24 33.967 5.3L31.537 13.775C31.487 13.925 31.377 14 31.207 14H30.277C30.087 14 29.972 13.93 29.932 13.79L26.887 3.14C26.867 3.06 26.872 2.995 26.902 2.945C26.942 2.895 27.007 2.87 27.097 2.87H28.057C28.137 2.87 28.197 2.885 28.237 2.915C28.277 2.935 28.302 2.98 28.312 3.05L30.757 11.78C30.787 11.89 30.817 11.945 30.847 11.945C30.887 11.935 30.917 11.885 30.937 11.795L33.427 3.035C33.447 2.995 33.472 2.96 33.502 2.93C33.542 2.89 33.607 2.87 33.697 2.87H34.552C34.642 2.87 34.702 2.885 34.732 2.915C34.772 2.935 34.802 2.98 34.822 3.05L37.282 11.825C37.312 11.915 37.342 11.96 37.372 11.96C37.402 11.95 37.432 11.905 37.462 11.825L39.937 3.035C39.947 2.975 39.972 2.935 40.012 2.915C40.062 2.885 40.122 2.87 40.192 2.87H40.942ZM43.2958 3.08C43.2958 2.94 43.3558 2.87 43.4758 2.87H50.2108C50.3108 2.87 50.3608 2.925 50.3608 3.035V3.8C50.3608 3.92 50.2958 3.98 50.1658 3.98H44.9308C44.8008 3.98 44.7358 4.04 44.7358 4.16V7.67C44.7358 7.78 44.7908 7.835 44.9008 7.835H48.7858C48.8958 7.835 48.9508 7.89 48.9508 8V8.795C48.9508 8.835 48.9408 8.87 48.9208 8.9C48.9008 8.92 48.8558 8.93 48.7858 8.93H44.9008C44.7908 8.93 44.7358 8.985 44.7358 9.095V12.74C44.7358 12.84 44.7858 12.89 44.8858 12.89H50.3908C50.5008 12.89 50.5558 12.94 50.5558 13.04V13.835C50.5558 13.885 50.5408 13.925 50.5108 13.955C50.4908 13.985 50.4508 14 50.3908 14H43.5058C43.3658 14 43.2958 13.93 43.2958 13.79V3.08ZM60.6648 13.715C60.6948 13.785 60.6898 13.85 60.6498 13.91C60.6198 13.97 60.5698 14 60.4998 14H59.4048C59.2948 14 59.2148 13.94 59.1648 13.82L57.2298 9.095C57.1798 8.985 57.0598 8.93 56.8698 8.93H54.3348C54.2648 8.93 54.2148 8.945 54.1848 8.975C54.1648 9.005 54.1548 9.045 54.1548 9.095V13.76C54.1548 13.92 54.0698 14 53.8998 14H52.9248C52.8448 14 52.7898 13.985 52.7598 13.955C52.7298 13.915 52.7148 13.865 52.7148 13.805V3.08C52.7148 2.94 52.7748 2.87 52.8948 2.87H57.0798C58.2598 2.87 59.1748 3.115 59.8248 3.605C60.4848 4.085 60.8148 4.8 60.8148 5.75C60.8148 6.32 60.7048 6.805 60.4848 7.205C60.2648 7.595 59.9848 7.91 59.6448 8.15C59.3148 8.38 58.9748 8.55 58.6248 8.66C58.5448 8.67 58.5248 8.72 58.5648 8.81L60.6648 13.715ZM56.6598 7.88C57.5398 7.88 58.1998 7.72 58.6398 7.4C59.0898 7.08 59.3148 6.575 59.3148 5.885C59.3148 5.215 59.1148 4.72 58.7148 4.4C58.3248 4.08 57.7548 3.92 57.0048 3.92H54.3648C54.2248 3.92 54.1548 3.975 54.1548 4.085V7.685C54.1548 7.815 54.1998 7.88 54.2898 7.88H56.6598ZM63.1591 3.08C63.1591 2.94 63.2191 2.87 63.3391 2.87H70.0741C70.1741 2.87 70.2241 2.925 70.2241 3.035V3.8C70.2241 3.92 70.1591 3.98 70.0291 3.98H64.7941C64.6641 3.98 64.5991 4.04 64.5991 4.16V7.67C64.5991 7.78 64.6541 7.835 64.7641 7.835H68.6491C68.7591 7.835 68.8141 7.89 68.8141 8V8.795C68.8141 8.835 68.8041 8.87 68.7841 8.9C68.7641 8.92 68.7191 8.93 68.6491 8.93H64.7641C64.6541 8.93 64.5991 8.985 64.5991 9.095V12.74C64.5991 12.84 64.6491 12.89 64.7491 12.89H70.2541C70.3641 12.89 70.4191 12.94 70.4191 13.04V13.835C70.4191 13.885 70.4041 13.925 70.3741 13.955C70.3541 13.985 70.3141 14 70.2541 14H63.3691C63.2291 14 63.1591 13.93 63.1591 13.79V3.08ZM72.803 2.87C72.873 2.87 73.018 2.87 73.238 2.87C73.458 2.87 73.698 2.875 73.958 2.885C74.218 2.885 74.458 2.885 74.678 2.885C74.898 2.885 75.053 2.885 75.143 2.885C76.533 2.905 77.653 3.125 78.503 3.545C79.363 3.965 79.988 4.575 80.378 5.375C80.778 6.175 80.978 7.165 80.978 8.345C80.978 9.595 80.763 10.64 80.333 11.48C79.903 12.32 79.243 12.95 78.353 13.37C77.463 13.79 76.343 14 74.993 14H72.788C72.648 14 72.578 13.92 72.578 13.76V3.08C72.578 3.01 72.593 2.96 72.623 2.93C72.663 2.89 72.723 2.87 72.803 2.87ZM74.168 3.965C74.068 3.965 74.018 4.035 74.018 4.175V12.755C74.018 12.865 74.078 12.92 74.198 12.92H74.768C75.878 12.92 76.778 12.775 77.468 12.485C78.158 12.185 78.663 11.705 78.983 11.045C79.313 10.385 79.478 9.51 79.478 8.42C79.478 7.28 79.308 6.39 78.968 5.75C78.638 5.1 78.128 4.64 77.438 4.37C76.758 4.1 75.893 3.965 74.843 3.965H74.168ZM86.7913 14C86.7313 14 86.6863 13.985 86.6563 13.955C86.6263 13.925 86.6113 13.88 86.6113 13.82V3.08C86.6113 3.01 86.6263 2.96 86.6563 2.93C86.6963 2.89 86.7463 2.87 86.8063 2.87H90.2713C91.6013 2.87 92.6263 3.115 93.3463 3.605C94.0763 4.095 94.4413 4.81 94.4413 5.75C94.4413 6.35 94.2813 6.86 93.9613 7.28C93.6513 7.69 93.1563 8.015 92.4763 8.255C92.4363 8.265 92.4163 8.285 92.4163 8.315C92.4163 8.345 92.4363 8.365 92.4763 8.375C93.1963 8.555 93.7463 8.865 94.1263 9.305C94.5163 9.735 94.7113 10.31 94.7113 11.03C94.7113 12.03 94.3363 12.775 93.5863 13.265C92.8363 13.755 91.7663 14 90.3763 14H86.7913ZM90.3013 12.95C91.2813 12.95 92.0113 12.795 92.4913 12.485C92.9713 12.165 93.2113 11.665 93.2113 10.985C93.2113 10.495 93.0913 10.1 92.8513 9.8C92.6113 9.49 92.2863 9.265 91.8763 9.125C91.4663 8.985 90.9963 8.915 90.4663 8.915H88.2613C88.1213 8.915 88.0513 8.975 88.0513 9.095V12.74C88.0513 12.88 88.0963 12.95 88.1863 12.95H90.3013ZM90.4663 7.835C90.7663 7.835 91.0663 7.805 91.3663 7.745C91.6663 7.685 91.9363 7.585 92.1763 7.445C92.4263 7.295 92.6213 7.1 92.7613 6.86C92.9113 6.61 92.9863 6.295 92.9863 5.915C92.9863 5.235 92.7363 4.735 92.2363 4.415C91.7463 4.085 91.0913 3.92 90.2713 3.92H88.2463C88.1163 3.92 88.0513 3.98 88.0513 4.1V7.64C88.0513 7.77 88.0963 7.835 88.1863 7.835H90.4663ZM104.506 2.87C104.576 2.87 104.621 2.89 104.641 2.93C104.671 2.97 104.666 3.02 104.626 3.08L101.056 9.05C101.016 9.11 100.991 9.17 100.981 9.23C100.971 9.29 100.966 9.395 100.966 9.545V13.745C100.966 13.915 100.871 14 100.681 14H99.7815C99.6815 14 99.6165 13.98 99.5865 13.94C99.5565 13.9 99.5415 13.845 99.5415 13.775V9.605C99.5415 9.505 99.5315 9.43 99.5115 9.38C99.4915 9.33 99.4615 9.27 99.4215 9.2L95.8065 3.11C95.7665 3.04 95.7565 2.985 95.7765 2.945C95.8065 2.895 95.8715 2.87 95.9715 2.87H97.0515C97.1415 2.87 97.2065 2.885 97.2465 2.915C97.2865 2.935 97.3265 2.98 97.3665 3.05L100.156 7.85C100.216 7.96 100.271 8.02 100.321 8.03C100.371 8.03 100.426 7.98 100.486 7.88L103.261 3.05C103.301 2.97 103.341 2.92 103.381 2.9C103.421 2.88 103.486 2.87 103.576 2.87H104.506Z" fill="#797979"/>
<path d="M4.62696 21.676C4.81763 21.676 4.91296 21.786 4.91296 22.006V37.582C4.91296 37.7433 4.87629 37.8533 4.80296 37.912C4.74429 37.9707 4.62696 38 4.45096 38H2.64696C2.48563 38 2.37563 37.978 2.31696 37.934C2.27296 37.8753 2.25096 37.78 2.25096 37.648V22.006C2.25096 21.786 2.35363 21.676 2.55896 21.676H4.62696ZM21.5637 21.676C21.725 21.676 21.8057 21.7713 21.8057 21.962V37.714C21.8057 37.802 21.7764 37.8753 21.7177 37.934C21.659 37.978 21.5784 38 21.4757 38H20.0457C19.943 38 19.855 37.9927 19.7817 37.978C19.7084 37.9487 19.635 37.8827 19.5617 37.78L11.5317 26.252C11.4584 26.1493 11.3997 26.1053 11.3557 26.12C11.3117 26.1347 11.2897 26.186 11.2897 26.274V37.692C11.2897 37.8973 11.1724 38 10.9377 38H9.37569C9.14103 38 9.02369 37.8973 9.02369 37.692V22.006C9.02369 21.786 9.13369 21.676 9.35369 21.676H11.0697C11.187 21.676 11.275 21.6907 11.3337 21.72C11.407 21.7493 11.4804 21.8227 11.5537 21.94L19.2537 33.094C19.3417 33.2113 19.415 33.2627 19.4737 33.248C19.547 33.2187 19.5837 33.1527 19.5837 33.05V21.984C19.5837 21.7787 19.6864 21.676 19.8917 21.676H21.5637ZM28.7761 30.564C28.6294 30.564 28.5561 30.6373 28.5561 30.784V37.626C28.5561 37.8753 28.4168 38 28.1381 38H26.2681C26.1214 38 26.0188 37.9707 25.9601 37.912C25.9161 37.8533 25.8941 37.7653 25.8941 37.648V22.006C25.8941 21.786 25.9968 21.676 26.2021 21.676H28.2701C28.4608 21.676 28.5561 21.786 28.5561 22.006V28.188C28.5561 28.3933 28.6514 28.496 28.8421 28.496H35.3761C35.5521 28.496 35.6401 28.4007 35.6401 28.21V21.984C35.6401 21.7787 35.7281 21.676 35.9041 21.676H38.0161C38.2068 21.676 38.3021 21.786 38.3021 22.006V37.648C38.3021 37.7653 38.2728 37.8533 38.2141 37.912C38.1701 37.9707 38.0748 38 37.9281 38H36.0801C35.7868 38 35.6401 37.8753 35.6401 37.626V30.806C35.6401 30.6447 35.5594 30.564 35.3981 30.564H28.7761ZM41.6292 38C41.5266 38 41.4532 37.956 41.4092 37.868C41.3652 37.78 41.3652 37.67 41.4092 37.538L47.0192 22.028C47.0632 21.896 47.1219 21.808 47.1952 21.764C47.2686 21.7053 47.3712 21.676 47.5032 21.676H49.7252C50.0039 21.676 50.1872 21.8007 50.2752 22.05L55.8412 37.56C55.8852 37.6627 55.8852 37.7653 55.8412 37.868C55.7972 37.956 55.7166 38 55.5992 38H53.5312C53.3406 38 53.2159 37.912 53.1572 37.736L51.7492 33.82C51.7346 33.7467 51.7052 33.6953 51.6612 33.666C51.6319 33.6367 51.5732 33.622 51.4852 33.622H45.3912C45.2592 33.622 45.1712 33.6807 45.1272 33.798L43.6972 37.78C43.6679 37.8533 43.6239 37.912 43.5652 37.956C43.5212 37.9853 43.4406 38 43.3232 38H41.6292ZM50.8032 31.554C50.9939 31.554 51.0526 31.4513 50.9792 31.246L48.6032 24.646C48.5446 24.5287 48.4859 24.47 48.4272 24.47C48.3832 24.47 48.3392 24.536 48.2952 24.668L45.8532 31.268C45.7799 31.4587 45.8312 31.554 46.0072 31.554H50.8032ZM59.2559 38C59.1532 38 59.0726 37.9707 59.0139 37.912C58.9552 37.8533 58.9259 37.78 58.9259 37.692V22.05C58.9259 21.9327 58.9552 21.8447 59.0139 21.786C59.0872 21.7127 59.1752 21.676 59.2779 21.676H64.6239C66.6479 21.676 68.2026 22.0353 69.2879 22.754C70.3732 23.4727 70.9159 24.5287 70.9159 25.922C70.9159 26.7873 70.6886 27.5133 70.2339 28.1C69.7792 28.6867 69.0459 29.1707 68.0339 29.552C67.9752 29.5667 67.9459 29.6033 67.9459 29.662C67.9459 29.706 67.9752 29.7353 68.0339 29.75C69.1192 30.0433 69.9332 30.5053 70.4759 31.136C71.0332 31.752 71.3119 32.5807 71.3119 33.622C71.3119 35.1033 70.7546 36.2033 69.6399 36.922C68.5399 37.6407 66.9339 38 64.8219 38H59.2559ZM64.7119 36.13C66.0026 36.13 66.9632 35.91 67.5939 35.47C68.2246 35.0153 68.5399 34.348 68.5399 33.468C68.5399 32.8227 68.3786 32.302 68.0559 31.906C67.7479 31.4953 67.3226 31.1947 66.7799 31.004C66.2372 30.8133 65.6212 30.718 64.9319 30.718H61.9399C61.7052 30.718 61.5879 30.8133 61.5879 31.004V35.8C61.5879 36.02 61.6686 36.13 61.8299 36.13H64.7119ZM64.9319 28.782C65.3426 28.782 65.7386 28.7453 66.1199 28.672C66.5159 28.584 66.8752 28.4447 67.1979 28.254C67.5206 28.0487 67.7772 27.7847 67.9679 27.462C68.1586 27.1247 68.2539 26.714 68.2539 26.23C68.2539 25.3353 67.9239 24.668 67.2639 24.228C66.6186 23.7733 65.7532 23.546 64.6679 23.546H61.9179C61.6979 23.546 61.5879 23.6413 61.5879 23.832V28.474C61.5879 28.6793 61.6686 28.782 61.8299 28.782H64.9319ZM77.0766 21.676C77.2672 21.676 77.3626 21.786 77.3626 22.006V37.582C77.3626 37.7433 77.3259 37.8533 77.2526 37.912C77.1939 37.9707 77.0766 38 76.9006 38H75.0966C74.9352 38 74.8252 37.978 74.7666 37.934C74.7226 37.8753 74.7006 37.78 74.7006 37.648V22.006C74.7006 21.786 74.8032 21.676 75.0086 21.676H77.0766ZM80.3953 21.984C80.3953 21.8813 80.4173 21.808 80.4613 21.764C80.52 21.7053 80.608 21.676 80.7253 21.676H92.8033C92.9206 21.676 93.0013 21.7053 93.0453 21.764C93.0893 21.808 93.1113 21.8813 93.1113 21.984V23.392C93.1113 23.568 93.0086 23.656 92.8033 23.656H88.4473C88.286 23.656 88.2053 23.722 88.2053 23.854V37.67C88.2053 37.89 88.11 38 87.9193 38H85.8513C85.6606 38 85.5653 37.8973 85.5653 37.692V23.898C85.5653 23.7367 85.4846 23.656 85.3233 23.656H80.7033C80.498 23.656 80.3953 23.568 80.3953 23.392V21.984ZM108.297 37.538C108.341 37.6553 108.333 37.7653 108.275 37.868C108.231 37.956 108.15 38 108.033 38H105.899C105.723 38 105.591 37.8973 105.503 37.692L102.819 31.004C102.745 30.828 102.562 30.74 102.269 30.74H99.0568C98.9541 30.74 98.8808 30.7693 98.8368 30.828C98.8075 30.872 98.7928 30.9233 98.7928 30.982V37.604C98.7928 37.868 98.6535 38 98.3748 38H96.5048C96.3581 38 96.2555 37.9707 96.1968 37.912C96.1528 37.8533 96.1308 37.7653 96.1308 37.648V22.006C96.1308 21.786 96.2335 21.676 96.4388 21.676H102.797C104.601 21.676 106.001 22.0427 106.999 22.776C108.011 23.5093 108.517 24.58 108.517 25.988C108.517 26.7947 108.363 27.4913 108.055 28.078C107.747 28.65 107.351 29.1193 106.867 29.486C106.397 29.838 105.891 30.0947 105.349 30.256C105.246 30.3 105.217 30.388 105.261 30.52L108.297 37.538ZM102.269 28.87C103.413 28.87 104.278 28.6573 104.865 28.232C105.466 27.792 105.767 27.11 105.767 26.186C105.767 25.306 105.495 24.646 104.953 24.206C104.41 23.766 103.64 23.546 102.643 23.546H99.1448C98.9101 23.546 98.7928 23.634 98.7928 23.81V28.562C98.7928 28.7673 98.8735 28.87 99.0348 28.87H102.269Z" fill="#FFC847"/>
</svg>
