<svg width="151" height="54" viewBox="0 0 151 54" fill="none" xmlns="http://www.w3.org/2000/svg">
<rect x="7" width="138" height="20" fill="white"/>
<rect y="28" width="151" height="26" fill="white"/>
<path d="M145.06 2.21283C145.159 2.21283 145.223 2.2412 145.251 2.29795C145.294 2.35469 145.287 2.42562 145.23 2.51074L140.166 10.9798C140.109 11.0649 140.073 11.15 140.059 11.2351C140.045 11.3203 140.038 11.4692 140.038 11.682V17.6401C140.038 17.8813 139.903 18.0019 139.634 18.0019H138.357C138.215 18.0019 138.123 17.9735 138.08 17.9168C138.038 17.86 138.016 17.782 138.016 17.6827V11.7671C138.016 11.6253 138.002 11.5189 137.974 11.4479C137.945 11.377 137.903 11.2919 137.846 11.1926L132.718 2.55329C132.661 2.45399 132.647 2.37597 132.675 2.31922C132.718 2.24829 132.81 2.21283 132.952 2.21283H134.484C134.612 2.21283 134.704 2.23411 134.761 2.27667C134.817 2.30504 134.874 2.36888 134.931 2.46818L138.889 9.27747C138.974 9.43352 139.052 9.51863 139.123 9.53282C139.194 9.53282 139.272 9.46189 139.357 9.32003L143.294 2.46818C143.35 2.35469 143.407 2.28376 143.464 2.25539C143.521 2.22702 143.613 2.21283 143.74 2.21283H145.06Z" fill="#797979"/>
<path d="M119.929 18.0019C119.844 18.0019 119.78 17.9806 119.738 17.938C119.695 17.8955 119.674 17.8316 119.674 17.7465V2.51074C119.674 2.41143 119.695 2.3405 119.738 2.29795C119.794 2.2412 119.865 2.21283 119.95 2.21283H124.866C126.753 2.21283 128.207 2.56039 129.228 3.2555C130.264 3.95062 130.781 4.96492 130.781 6.2984C130.781 7.14957 130.555 7.87305 130.101 8.46887C129.661 9.05049 128.959 9.51154 127.994 9.852C127.937 9.86619 127.909 9.89456 127.909 9.93712C127.909 9.97968 127.937 10.008 127.994 10.0222C129.015 10.2776 129.796 10.7174 130.335 11.3415C130.888 11.9515 131.165 12.7672 131.165 13.7886C131.165 15.2072 130.633 16.2641 129.569 16.9592C128.505 17.6543 126.987 18.0019 125.015 18.0019H119.929ZM124.908 16.5123C126.299 16.5123 127.334 16.2925 128.015 15.8527C128.696 15.3987 129.037 14.6894 129.037 13.7248C129.037 13.0297 128.866 12.4693 128.526 12.0437C128.185 11.604 127.724 11.2848 127.143 11.0862C126.561 10.8876 125.894 10.7883 125.143 10.7883H122.015C121.816 10.7883 121.717 10.8734 121.717 11.0436V16.2144C121.717 16.413 121.78 16.5123 121.908 16.5123H124.908ZM125.143 9.25619C125.568 9.25619 125.994 9.21363 126.419 9.12852C126.845 9.0434 127.228 8.90154 127.568 8.70294C127.923 8.49014 128.2 8.21352 128.398 7.87305C128.611 7.5184 128.717 7.07154 128.717 6.53247C128.717 5.56782 128.363 4.85852 127.653 4.40457C126.958 3.93643 126.029 3.70236 124.866 3.70236H121.993C121.809 3.70236 121.717 3.78748 121.717 3.95771V8.97956C121.717 9.16398 121.78 9.25619 121.908 9.25619H125.143Z" fill="#797979"/>
<path d="M100.086 2.21283C100.185 2.21283 100.391 2.21283 100.703 2.21283C101.015 2.21283 101.355 2.21992 101.724 2.23411C102.093 2.23411 102.434 2.23411 102.746 2.23411C103.058 2.23411 103.278 2.23411 103.405 2.23411C105.377 2.26248 106.966 2.57457 108.172 3.17039C109.392 3.7662 110.278 4.63155 110.832 5.76643C111.399 6.90131 111.683 8.30573 111.683 9.97968C111.683 11.7529 111.378 13.2354 110.768 14.427C110.158 15.6186 109.222 16.5123 107.959 17.1082C106.696 17.704 105.108 18.0019 103.193 18.0019H100.065C99.8659 18.0019 99.7666 17.8884 99.7666 17.6614V2.51074C99.7666 2.41143 99.7879 2.3405 99.8304 2.29795C99.8872 2.2412 99.9723 2.21283 100.086 2.21283ZM102.022 3.7662C101.88 3.7662 101.809 3.8655 101.809 4.06411V16.2357C101.809 16.3918 101.894 16.4698 102.065 16.4698H102.873C104.448 16.4698 105.725 16.2641 106.704 15.8527C107.682 15.4271 108.399 14.7462 108.853 13.8099C109.321 12.8736 109.555 11.6323 109.555 10.0861C109.555 8.46887 109.314 7.20631 108.831 6.2984C108.363 5.37631 107.64 4.72376 106.661 4.34073C105.696 3.95771 104.469 3.7662 102.98 3.7662H102.022Z" fill="#797979"/>
<path d="M86.4043 2.51074C86.4043 2.31213 86.4894 2.21283 86.6596 2.21283H96.2139C96.3558 2.21283 96.4267 2.29085 96.4267 2.4469V3.53213C96.4267 3.70236 96.3345 3.78748 96.1501 3.78748H88.7237C88.5393 3.78748 88.4471 3.87259 88.4471 4.04283V9.02212C88.4471 9.17817 88.5251 9.25619 88.6812 9.25619H94.1924C94.3485 9.25619 94.4265 9.33421 94.4265 9.49026V10.618C94.4265 10.6748 94.4123 10.7244 94.3839 10.767C94.3556 10.7954 94.2917 10.8096 94.1924 10.8096H88.6812C88.5251 10.8096 88.4471 10.8876 88.4471 11.0436V16.2144C88.4471 16.3563 88.518 16.4272 88.6599 16.4272H96.4693C96.6253 16.4272 96.7034 16.4982 96.7034 16.64V17.7678C96.7034 17.8387 96.6821 17.8955 96.6395 17.938C96.6111 17.9806 96.5544 18.0019 96.4693 18.0019H86.7022C86.5036 18.0019 86.4043 17.9026 86.4043 17.704V2.51074Z" fill="#797979"/>
<path d="M82.8658 17.5976C82.9083 17.6969 82.9012 17.7891 82.8445 17.8742C82.8019 17.9593 82.731 18.0019 82.6317 18.0019H81.0783C80.9223 18.0019 80.8088 17.9168 80.7379 17.7465L77.9929 11.0436C77.9219 10.8876 77.7517 10.8096 77.4822 10.8096H73.886C73.7867 10.8096 73.7158 10.8308 73.6732 10.8734C73.6449 10.916 73.6307 10.9727 73.6307 11.0436V17.6614C73.6307 17.8884 73.5101 18.0019 73.2689 18.0019H71.8858C71.7723 18.0019 71.6943 17.9806 71.6517 17.938C71.6092 17.8813 71.5879 17.8104 71.5879 17.7252V2.51074C71.5879 2.31213 71.673 2.21283 71.8432 2.21283H77.7801C79.454 2.21283 80.7521 2.56039 81.6742 3.2555C82.6104 3.93643 83.0786 4.95073 83.0786 6.2984C83.0786 7.10701 82.9225 7.79503 82.6104 8.36247C82.2983 8.91573 81.9011 9.36259 81.4188 9.70305C80.9507 10.0293 80.4683 10.2705 79.9718 10.4265C79.8583 10.4407 79.83 10.5117 79.8867 10.6393L82.8658 17.5976ZM77.1843 9.32003C78.4326 9.32003 79.3689 9.09305 79.9931 8.6391C80.6315 8.18515 80.9507 7.46875 80.9507 6.48992C80.9507 5.53945 80.6669 4.83724 80.0995 4.38329C79.5463 3.92934 78.7376 3.70236 77.6737 3.70236H73.9286C73.73 3.70236 73.6307 3.78039 73.6307 3.93643V9.0434C73.6307 9.22782 73.6945 9.32003 73.8222 9.32003H77.1843Z" fill="#797979"/>
<path d="M58.2266 2.51074C58.2266 2.31213 58.3117 2.21283 58.4819 2.21283H68.0362C68.1781 2.21283 68.249 2.29085 68.249 2.4469V3.53213C68.249 3.70236 68.1568 3.78748 67.9724 3.78748H60.546C60.3616 3.78748 60.2693 3.87259 60.2693 4.04283V9.02212C60.2693 9.17817 60.3474 9.25619 60.5034 9.25619H66.0147C66.1707 9.25619 66.2488 9.33421 66.2488 9.49026V10.618C66.2488 10.6748 66.2346 10.7244 66.2062 10.767C66.1778 10.7954 66.114 10.8096 66.0147 10.8096H60.5034C60.3474 10.8096 60.2693 10.8876 60.2693 11.0436V16.2144C60.2693 16.3563 60.3403 16.4272 60.4821 16.4272H68.2915C68.4476 16.4272 68.5256 16.4982 68.5256 16.64V17.7678C68.5256 17.8387 68.5043 17.8955 68.4618 17.938C68.4334 17.9806 68.3767 18.0019 68.2915 18.0019H58.5245C58.3259 18.0019 58.2266 17.9026 58.2266 17.704V2.51074Z" fill="#797979"/>
<path d="M54.8871 2.21283C55.0148 2.21283 55.0999 2.24829 55.1425 2.31922C55.1992 2.39015 55.2134 2.48236 55.185 2.59585L50.8015 17.6827C50.7306 17.8955 50.5746 18.0019 50.3334 18.0019H49.0354C48.7659 18.0019 48.6027 17.9026 48.546 17.704L45.1413 5.63875C45.1271 5.56782 45.1059 5.53236 45.0775 5.53236C45.0491 5.53236 45.0207 5.57492 44.9924 5.66003L41.5452 17.6827C41.4742 17.8955 41.3182 18.0019 41.077 18.0019H39.7577C39.4882 18.0019 39.3251 17.9026 39.2683 17.704L34.9487 2.59585C34.9203 2.48236 34.9274 2.39015 34.9699 2.31922C35.0267 2.24829 35.1189 2.21283 35.2466 2.21283H36.6084C36.7219 2.21283 36.807 2.23411 36.8638 2.27667C36.9205 2.30504 36.956 2.36888 36.9702 2.46818L40.4387 14.8526C40.4812 15.0086 40.5238 15.0866 40.5663 15.0866C40.6231 15.0725 40.6656 15.0015 40.694 14.8739L44.2263 2.4469C44.2547 2.39016 44.2902 2.3405 44.3327 2.29795C44.3895 2.2412 44.4817 2.21283 44.6093 2.21283H45.8223C45.9499 2.21283 46.035 2.23411 46.0776 2.27667C46.1343 2.30504 46.1769 2.36888 46.2053 2.46818L49.695 14.9164C49.7376 15.0441 49.7802 15.1079 49.8227 15.1079C49.8653 15.0937 49.9078 15.0299 49.9504 14.9164L53.4614 2.4469C53.4756 2.36178 53.5111 2.30504 53.5678 2.27667C53.6388 2.23411 53.7239 2.21283 53.8232 2.21283H54.8871Z" fill="#797979"/>
<path d="M26.7201 18.2146C25.3298 18.2146 24.124 17.9025 23.1026 17.2783C22.0954 16.6542 21.3223 15.7463 20.7832 14.5546C20.2441 13.3488 19.9746 11.8877 19.9746 10.1711C19.9746 8.44045 20.2512 6.96511 20.8045 5.74511C21.3577 4.52511 22.138 3.59593 23.1452 2.95756C24.1524 2.31919 25.3511 2 26.7413 2C28.1316 2 29.3232 2.31919 30.3162 2.95756C31.3234 3.59593 32.0966 4.51802 32.6356 5.72383C33.1889 6.92964 33.4655 8.40499 33.4655 10.1499C33.4655 11.8664 33.196 13.3275 32.6569 14.5334C32.1178 15.725 31.3376 16.64 30.3162 17.2783C29.309 17.9025 28.1103 18.2146 26.7201 18.2146ZM26.7626 16.6613C28.2947 16.6613 29.4367 16.1364 30.1885 15.0866C30.9546 14.0227 31.3376 12.3842 31.3376 10.1711C31.3376 7.91557 30.9475 6.24871 30.1673 5.17058C29.4012 4.09244 28.2592 3.55337 26.7413 3.55337C25.2093 3.55337 24.0531 4.09953 23.2729 5.19185C22.4926 6.26999 22.1025 7.92976 22.1025 10.1711C22.1025 12.37 22.4926 14.0014 23.2729 15.0653C24.0531 16.1293 25.2163 16.6613 26.7626 16.6613Z" fill="#797979"/>
<path d="M17.4333 6.8091C17.4333 7.85887 17.1921 8.72421 16.7098 9.40514C16.2275 10.0861 15.5678 10.5897 14.7308 10.916C13.8939 11.2422 12.9221 11.4054 11.8156 11.4054H8.19817C8.07049 11.4054 8.00665 11.4692 8.00665 11.5969V17.6827C8.00665 17.8955 7.90026 18.0019 7.68747 18.0019H6.24049C6.14119 18.0019 6.07026 17.9806 6.0277 17.938C5.98515 17.8955 5.96387 17.8245 5.96387 17.7252V2.51074C5.96387 2.31213 6.04898 2.21283 6.21922 2.21283H11.5815C12.7022 2.21283 13.7023 2.36888 14.5819 2.68097C15.4614 2.99306 16.1565 3.48957 16.6672 4.1705C17.1779 4.85143 17.4333 5.73096 17.4333 6.8091ZM15.3479 6.74526C15.3479 6.02178 15.1848 5.44015 14.8585 5.00038C14.5464 4.56062 14.0996 4.24852 13.5179 4.06411C12.9505 3.8655 12.2696 3.7662 11.4751 3.7662H8.28328C8.09886 3.7662 8.00665 3.85132 8.00665 4.02155V9.5541C8.00665 9.7527 8.07049 9.852 8.19817 9.852H11.6241C12.7448 9.852 13.6456 9.60375 14.3265 9.10724C15.0075 8.61073 15.3479 7.8234 15.3479 6.74526Z" fill="#797979"/>
<path d="M150.436 51.393C150.499 51.5594 150.488 51.7155 150.405 51.8611C150.343 51.986 150.228 52.0484 150.062 52.0484H147.035C146.785 52.0484 146.598 51.9027 146.473 51.6114L142.665 42.1238C142.561 41.8742 142.301 41.7493 141.885 41.7493H137.329C137.183 41.7493 137.079 41.7909 137.016 41.8742C136.975 41.9366 136.954 42.0094 136.954 42.0926V51.4866C136.954 51.8611 136.756 52.0484 136.361 52.0484H133.708C133.5 52.0484 133.355 52.0068 133.271 51.9235C133.209 51.8403 133.178 51.7155 133.178 51.549V29.3593C133.178 29.0472 133.323 28.8911 133.615 28.8911H142.634C145.193 28.8911 147.18 29.4113 148.595 30.4516C150.031 31.4919 150.749 33.0107 150.749 35.0081C150.749 36.1525 150.53 37.1408 150.093 37.973C149.656 38.7844 149.094 39.4502 148.408 39.9704C147.742 40.4697 147.024 40.8339 146.254 41.0627C146.109 41.1251 146.067 41.25 146.13 41.4372L150.436 51.393ZM141.885 39.0965C143.508 39.0965 144.736 38.7948 145.568 38.1915C146.421 37.5673 146.847 36.5998 146.847 35.289C146.847 34.0406 146.462 33.1044 145.693 32.4802C144.923 31.856 143.83 31.5439 142.416 31.5439H137.453C137.121 31.5439 136.954 31.6687 136.954 31.9184V38.6596C136.954 38.9509 137.068 39.0965 137.297 39.0965H141.885Z" fill="#FFC847"/>
<path d="M110.855 29.328C110.855 29.1824 110.887 29.0784 110.949 29.016C111.032 28.9327 111.157 28.8911 111.324 28.8911H128.457C128.624 28.8911 128.738 28.9327 128.801 29.016C128.863 29.0784 128.894 29.1824 128.894 29.328V31.3254C128.894 31.5751 128.749 31.6999 128.457 31.6999H122.278C122.049 31.6999 121.935 31.7936 121.935 31.9808V51.5802C121.935 51.8923 121.8 52.0484 121.529 52.0484H118.595C118.325 52.0484 118.19 51.9027 118.19 51.6114V32.0432C118.19 31.8144 118.075 31.6999 117.846 31.6999H111.292C111.001 31.6999 110.855 31.5751 110.855 31.3254V29.328Z" fill="#FFC847"/>
<path d="M106.148 28.8911C106.418 28.8911 106.554 29.0472 106.554 29.3593V51.4554C106.554 51.6843 106.502 51.8403 106.398 51.9235C106.314 52.0068 106.148 52.0484 105.898 52.0484H103.339C103.11 52.0484 102.954 52.0172 102.871 51.9548C102.809 51.8715 102.777 51.7363 102.777 51.549V29.3593C102.777 29.0472 102.923 28.8911 103.214 28.8911H106.148Z" fill="#FFC847"/>
<path d="M80.8675 52.0484C80.7219 52.0484 80.6075 52.0068 80.5243 51.9235C80.441 51.8403 80.3994 51.7363 80.3994 51.6114V29.4217C80.3994 29.2552 80.441 29.1304 80.5243 29.0472C80.6283 28.9431 80.7531 28.8911 80.8988 28.8911H88.4826C91.3539 28.8911 93.5593 29.4009 95.099 30.4204C96.6386 31.4399 97.4085 32.9379 97.4085 34.9145C97.4085 36.1421 97.086 37.172 96.441 38.0042C95.796 38.8365 94.7557 39.5231 93.32 40.064C93.2368 40.0848 93.1952 40.1368 93.1952 40.2201C93.1952 40.2825 93.2368 40.3241 93.32 40.3449C94.8597 40.761 96.0144 41.4164 96.7843 42.3111C97.5749 43.185 97.9702 44.3605 97.9702 45.8377C97.9702 47.9392 97.1796 49.4996 95.5983 50.5191C94.0379 51.5386 91.7596 52.0484 88.7635 52.0484H80.8675ZM88.6074 49.3956C90.4384 49.3956 91.8012 49.0835 92.6959 48.4593C93.5905 47.8143 94.0379 46.8676 94.0379 45.6193C94.0379 44.7038 93.809 43.9652 93.3513 43.4034C92.9143 42.8208 92.3109 42.3943 91.5411 42.1238C90.7713 41.8534 89.8974 41.7181 88.9195 41.7181H84.6751C84.3422 41.7181 84.1757 41.8534 84.1757 42.1238V48.9275C84.1757 49.2395 84.2902 49.3956 84.519 49.3956H88.6074ZM88.9195 38.9717C89.5021 38.9717 90.0639 38.9197 90.6048 38.8157C91.1666 38.6908 91.6764 38.4932 92.1341 38.2227C92.5918 37.9314 92.9559 37.5569 93.2264 37.0991C93.4969 36.6206 93.6321 36.038 93.6321 35.3514C93.6321 34.0823 93.164 33.1356 92.2277 32.5114C91.3123 31.8664 90.0847 31.5439 88.545 31.5439H84.6439C84.3318 31.5439 84.1757 31.6791 84.1757 31.9496V38.5348C84.1757 38.8261 84.2902 38.9717 84.519 38.9717H88.9195Z" fill="#FFC847"/>
<path d="M55.8618 52.0484C55.7162 52.0484 55.6122 51.986 55.5497 51.8611C55.4873 51.7363 55.4873 51.5802 55.5497 51.393L63.5081 29.3905C63.5705 29.2032 63.6538 29.0784 63.7578 29.016C63.8618 28.9327 64.0075 28.8911 64.1947 28.8911H67.3468C67.7422 28.8911 68.0022 29.068 68.1271 29.4217L76.023 51.4242C76.0854 51.5698 76.0854 51.7155 76.023 51.8611C75.9606 51.986 75.8462 52.0484 75.6797 52.0484H72.746C72.4756 52.0484 72.2987 51.9235 72.2155 51.6739L70.2181 46.1186C70.1973 46.0146 70.1557 45.9418 70.0933 45.9002C70.0516 45.8585 69.9684 45.8377 69.8436 45.8377H61.1986C61.0114 45.8377 60.8865 45.921 60.8241 46.0874L58.7955 51.7363C58.7539 51.8403 58.6915 51.9235 58.6083 51.986C58.5458 52.0276 58.4314 52.0484 58.265 52.0484H55.8618ZM68.8761 42.9041C69.1466 42.9041 69.2298 42.7584 69.1258 42.4671L65.7552 33.1044C65.6719 32.9379 65.5887 32.8547 65.5055 32.8547C65.4431 32.8547 65.3807 32.9483 65.3182 33.1356L61.854 42.4983C61.75 42.7688 61.8228 42.9041 62.0725 42.9041H68.8761Z" fill="#FFC847"/>
<path d="M37.6285 41.4997C37.4204 41.4997 37.3164 41.6037 37.3164 41.8117V51.5178C37.3164 51.8715 37.1187 52.0484 36.7234 52.0484H34.0706C33.8625 52.0484 33.7169 52.0068 33.6337 51.9235C33.5712 51.8403 33.54 51.7155 33.54 51.549V29.3593C33.54 29.0472 33.6857 28.8911 33.977 28.8911H36.9106C37.1811 28.8911 37.3164 29.0472 37.3164 29.3593V38.1291C37.3164 38.4203 37.4516 38.566 37.7221 38.566H46.9912C47.2409 38.566 47.3657 38.4307 47.3657 38.1603V29.328C47.3657 29.0368 47.4906 28.8911 47.7402 28.8911H50.7363C51.0068 28.8911 51.1421 29.0472 51.1421 29.3593V51.549C51.1421 51.7155 51.1004 51.8403 51.0172 51.9235C50.9548 52.0068 50.8196 52.0484 50.6115 52.0484H47.9899C47.5738 52.0484 47.3657 51.8715 47.3657 51.5178V41.843C47.3657 41.6141 47.2513 41.4997 47.0224 41.4997H37.6285Z" fill="#FFC847"/>
<path d="M27.3967 28.8911C27.6256 28.8911 27.74 29.0264 27.74 29.2968V51.6427C27.74 51.7675 27.6984 51.8715 27.6152 51.9548C27.5319 52.0172 27.4175 52.0484 27.2719 52.0484H25.2433C25.0976 52.0484 24.9728 52.038 24.8687 52.0172C24.7647 51.9756 24.6607 51.8819 24.5567 51.7363L13.1653 35.3826C13.0612 35.237 12.978 35.1746 12.9156 35.1954C12.8532 35.2162 12.822 35.289 12.822 35.4138V51.6114C12.822 51.9027 12.6555 52.0484 12.3226 52.0484H10.1068C9.77387 52.0484 9.60742 51.9027 9.60742 51.6114V29.3593C9.60742 29.0472 9.76347 28.8911 10.0756 28.8911H12.5099C12.6763 28.8911 12.8012 28.9119 12.8844 28.9535C12.9884 28.9951 13.0925 29.0992 13.1965 29.2656L24.1197 45.0887C24.2446 45.2552 24.3486 45.328 24.4318 45.3072C24.5358 45.2656 24.5879 45.1719 24.5879 45.0263V29.328C24.5879 29.0368 24.7335 28.8911 25.0248 28.8911H27.3967Z" fill="#FFC847"/>
<path d="M3.3706 28.8911C3.64108 28.8911 3.77632 29.0472 3.77632 29.3593V51.4554C3.77632 51.6843 3.7243 51.8403 3.62027 51.9235C3.53705 52.0068 3.3706 52.0484 3.12093 52.0484H0.561767C0.332899 52.0484 0.176852 52.0172 0.0936277 51.9548C0.0312093 51.8715 0 51.7363 0 51.549V29.3593C0 29.0472 0.145643 28.8911 0.43693 28.8911H3.3706Z" fill="#FFC847"/>
</svg>
