<svg width="115" height="34" viewBox="0 0 115 34" fill="none" xmlns="http://www.w3.org/2000/svg">
<rect x="0.5" y="0.5" width="114" height="33" rx="16.5" fill="white" stroke="#FFC847"/>
<path d="M20.956 16.5439L22.1935 17.7813L19.9745 19.9993L31.5 20V21.75L19.9745 21.7493L22.1935 23.9686L20.956 25.206L16.625 20.875L20.956 16.5439ZM28.044 7.79392L32.375 12.125L28.044 16.456L26.8065 15.2186L29.0255 12.9993L17.5 13V11.25L29.0255 11.2493L26.8065 9.03135L28.044 7.79392Z" fill="#FFC847"/>
<path d="M48.752 17.82C48.752 18.612 48.616 19.252 48.344 19.74C48.072 20.228 47.676 20.58 47.156 20.796C46.644 21.012 46.024 21.12 45.296 21.12C44.464 21.12 43.796 20.988 43.292 20.724C42.788 20.46 42.42 20.068 42.188 19.548C41.956 19.02 41.84 18.372 41.84 17.604V12.312C41.84 12.168 41.896 12.096 42.008 12.096H43.448C43.56 12.096 43.616 12.16 43.616 12.288V17.868C43.616 18.548 43.768 19.044 44.072 19.356C44.384 19.668 44.836 19.824 45.428 19.824C45.804 19.824 46.132 19.76 46.412 19.632C46.692 19.496 46.908 19.28 47.06 18.984C47.212 18.688 47.288 18.304 47.288 17.832V12.3C47.288 12.164 47.344 12.096 47.456 12.096H48.596C48.7 12.096 48.752 12.16 48.752 12.288V17.82ZM57.5576 14.808C57.5576 15.4 57.4176 15.896 57.1376 16.296C56.8656 16.688 56.4896 16.984 56.0096 17.184C55.5296 17.384 54.9696 17.484 54.3296 17.484H52.4456C52.3656 17.484 52.3256 17.524 52.3256 17.604V20.76C52.3256 20.92 52.2376 21 52.0616 21H50.7656C50.6856 21 50.6296 20.984 50.5976 20.952C50.5656 20.912 50.5496 20.856 50.5496 20.784V12.3C50.5496 12.164 50.6096 12.096 50.7296 12.096H54.1256C54.7656 12.096 55.3456 12.192 55.8656 12.384C56.3856 12.576 56.7976 12.872 57.1016 13.272C57.4056 13.672 57.5576 14.184 57.5576 14.808ZM55.7336 14.772C55.7336 14.444 55.6616 14.18 55.5176 13.98C55.3816 13.772 55.1816 13.62 54.9176 13.524C54.6616 13.428 54.3656 13.38 54.0296 13.38H52.5296C52.3936 13.38 52.3256 13.444 52.3256 13.572V15.996C52.3256 16.132 52.3776 16.2 52.4816 16.2H54.1016C54.5976 16.2 54.9936 16.08 55.2896 15.84C55.5856 15.592 55.7336 15.236 55.7336 14.772ZM62.5982 21.12C61.8062 21.12 61.1142 20.936 60.5222 20.568C59.9382 20.192 59.4862 19.664 59.1662 18.984C58.8462 18.304 58.6862 17.504 58.6862 16.584C58.6862 15.632 58.8542 14.812 59.1902 14.124C59.5262 13.436 59.9942 12.908 60.5942 12.54C61.1942 12.164 61.8942 11.976 62.6942 11.976C63.3102 11.976 63.8662 12.096 64.3622 12.336C64.8582 12.576 65.2622 12.884 65.5742 13.26C65.8942 13.636 66.0902 14.04 66.1622 14.472C66.1862 14.576 66.1902 14.644 66.1742 14.676C66.1582 14.708 66.1142 14.732 66.0422 14.748L64.7102 14.952C64.6462 14.952 64.6022 14.94 64.5782 14.916C64.5622 14.892 64.5462 14.848 64.5302 14.784C64.4822 14.504 64.3742 14.248 64.2062 14.016C64.0462 13.784 63.8342 13.6 63.5702 13.464C63.3062 13.32 63.0022 13.248 62.6582 13.248C62.2102 13.248 61.8262 13.364 61.5062 13.596C61.1942 13.828 60.9542 14.184 60.7862 14.664C60.6262 15.144 60.5462 15.76 60.5462 16.512C60.5462 17.304 60.6302 17.944 60.7982 18.432C60.9662 18.92 61.2142 19.28 61.5422 19.512C61.8702 19.736 62.2582 19.848 62.7062 19.848C63.0102 19.848 63.2742 19.8 63.4982 19.704C63.7302 19.608 63.9262 19.484 64.0862 19.332C64.2462 19.172 64.3702 18.996 64.4582 18.804C64.5542 18.604 64.6182 18.404 64.6502 18.204L64.6622 17.724C64.6942 17.62 64.6582 17.568 64.5542 17.568H62.9222C62.8662 17.568 62.8222 17.556 62.7902 17.532C62.7662 17.508 62.7542 17.46 62.7542 17.388V16.62C62.7542 16.524 62.8102 16.476 62.9222 16.476L66.0422 16.488C66.1382 16.488 66.2102 16.512 66.2582 16.56C66.3062 16.6 66.3302 16.656 66.3302 16.728V20.832C66.3302 20.888 66.3142 20.932 66.2822 20.964C66.2582 20.988 66.2222 21 66.1742 21H65.8262C65.7622 21 65.7062 20.988 65.6582 20.964C65.6182 20.94 65.5782 20.892 65.5382 20.82L65.2742 19.872C65.2582 19.84 65.2382 19.824 65.2142 19.824C65.1982 19.824 65.1782 19.844 65.1542 19.884C65.0022 20.084 64.8142 20.28 64.5902 20.472C64.3742 20.664 64.1022 20.82 63.7742 20.94C63.4542 21.06 63.0622 21.12 62.5982 21.12ZM74.9111 20.712C74.9431 20.784 74.9431 20.852 74.9111 20.916C74.8791 20.972 74.8271 21 74.7551 21H73.2911C73.1791 21 73.0991 20.936 73.0511 20.808L71.6711 17.304C71.6311 17.2 71.5231 17.148 71.3471 17.148H69.9071C69.8511 17.148 69.8111 17.164 69.7871 17.196C69.7711 17.22 69.7631 17.248 69.7631 17.28V20.748C69.7631 20.916 69.6711 21 69.4871 21H68.2151C68.1271 21 68.0671 20.984 68.0351 20.952C68.0031 20.912 67.9871 20.856 67.9871 20.784V12.3C67.9871 12.164 68.0471 12.096 68.1671 12.096H71.7791C72.8031 12.096 73.5991 12.304 74.1671 12.72C74.7431 13.128 75.0311 13.72 75.0311 14.496C75.0311 14.92 74.9511 15.292 74.7911 15.612C74.6311 15.924 74.4231 16.184 74.1671 16.392C73.9111 16.592 73.6391 16.744 73.3511 16.848C73.2791 16.864 73.2631 16.916 73.3031 17.004L74.9111 20.712ZM71.5271 15.924C72.0711 15.924 72.4831 15.816 72.7631 15.6C73.0511 15.384 73.1951 15.06 73.1951 14.628C73.1951 14.188 73.0591 13.86 72.7871 13.644C72.5151 13.42 72.1431 13.308 71.6711 13.308H69.9791C69.8351 13.308 69.7631 13.364 69.7631 13.476V15.744C69.7631 15.864 69.8151 15.924 69.9191 15.924H71.5271ZM75.8891 21C75.8331 21 75.7891 20.972 75.7571 20.916C75.7251 20.86 75.7251 20.788 75.7571 20.7L78.7811 12.312C78.8131 12.232 78.8491 12.176 78.8891 12.144C78.9291 12.112 78.9891 12.096 79.0691 12.096H80.5691C80.7371 12.096 80.8491 12.176 80.9051 12.336L83.9051 20.712C83.9291 20.776 83.9291 20.84 83.9051 20.904C83.8811 20.968 83.8371 21 83.7731 21H82.3211C82.2091 21 82.1371 20.948 82.1051 20.844L81.4091 18.9C81.4011 18.86 81.3851 18.832 81.3611 18.816C81.3451 18.792 81.3131 18.78 81.2651 18.78H78.1331C78.0611 18.78 78.0131 18.816 77.9891 18.888L77.2691 20.856C77.2611 20.904 77.2371 20.94 77.1971 20.964C77.1651 20.988 77.1171 21 77.0531 21H75.8891ZM80.8331 17.424C80.9371 17.424 80.9691 17.36 80.9291 17.232L79.7771 14.028C79.7531 13.972 79.7251 13.944 79.6931 13.944C79.6611 13.944 79.6331 13.976 79.6091 14.04L78.4451 17.232C78.3971 17.36 78.4291 17.424 78.5411 17.424H80.8331ZM85.5474 12.096C85.6594 12.096 85.8234 12.096 86.0394 12.096C86.2634 12.096 86.4994 12.096 86.7474 12.096C86.9954 12.096 87.2274 12.096 87.4434 12.096C87.6674 12.096 87.8354 12.1 87.9474 12.108C89.0354 12.132 89.9234 12.324 90.6114 12.684C91.3074 13.036 91.8194 13.536 92.1474 14.184C92.4754 14.824 92.6394 15.596 92.6394 16.5C92.6394 17.444 92.4634 18.252 92.1114 18.924C91.7674 19.596 91.2394 20.112 90.5274 20.472C89.8234 20.824 88.9354 21 87.8634 21H85.5474C85.3874 21 85.3074 20.916 85.3074 20.748V12.312C85.3074 12.232 85.3234 12.176 85.3554 12.144C85.3954 12.112 85.4594 12.096 85.5474 12.096ZM87.2034 13.368C87.1234 13.368 87.0834 13.424 87.0834 13.536V19.584C87.0834 19.68 87.1354 19.728 87.2394 19.728H87.5394C88.2754 19.728 88.8834 19.624 89.3634 19.416C89.8434 19.208 90.1994 18.868 90.4314 18.396C90.6634 17.924 90.7794 17.3 90.7794 16.524C90.7794 15.756 90.6674 15.144 90.4434 14.688C90.2194 14.224 89.8754 13.888 89.4114 13.68C88.9474 13.472 88.3594 13.368 87.6474 13.368H87.2034ZM94.2019 12.3C94.2019 12.164 94.2619 12.096 94.3819 12.096H100.202C100.306 12.096 100.358 12.156 100.358 12.276V13.188C100.358 13.34 100.286 13.416 100.142 13.416H96.1819C96.0459 13.416 95.9779 13.472 95.9779 13.584V15.684C95.9779 15.804 96.0339 15.864 96.1459 15.864H98.8819C99.0019 15.864 99.0619 15.924 99.0619 16.044V17.016C99.0619 17.056 99.0499 17.092 99.0259 17.124C99.0019 17.148 98.9579 17.16 98.8939 17.16H96.1339C96.0299 17.16 95.9779 17.208 95.9779 17.304V19.536C95.9779 19.632 96.0219 19.68 96.1099 19.68H100.31C100.438 19.68 100.502 19.736 100.502 19.848V20.82C100.502 20.868 100.486 20.912 100.454 20.952C100.422 20.984 100.37 21 100.298 21H94.4299C94.2779 21 94.2019 20.928 94.2019 20.784V12.3Z" fill="#FFC847"/>
</svg>
